<?xml version="1.0" standalone="no"?>
<!DOCTYPE svg PUBLIC "-//W3C//DTD SVG 20010904//EN"
 "http://www.w3.org/TR/2001/REC-SVG-20010904/DTD/svg10.dtd">
<svg version="1.0" xmlns="http://www.w3.org/2000/svg"
 width="512.000000pt" height="512.000000pt" viewBox="0 0 512.000000 512.000000"
 preserveAspectRatio="xMidYMid meet">
<metadata>
Created by potrace 1.11, written by Peter Selinger 2001-2013
</metadata>
<g transform="translate(0.000000,512.000000) scale(0.100000,-0.100000)"
fill="#000000" stroke="none">
<path d="M2379 5116 c-2 -2 -40 -6 -83 -10 -44 -4 -82 -8 -85 -10 -3 -2 -31
-7 -61 -11 -30 -3 -86 -13 -124 -22 -37 -8 -73 -16 -80 -17 -29 -6 -109 -30
-193 -57 -51 -17 -95 -30 -99 -29 -4 1 -10 -2 -13 -7 -3 -4 -24 -14 -46 -22
-51 -17 -308 -144 -345 -171 -15 -11 -31 -20 -34 -20 -4 0 -31 -18 -61 -40
-30 -22 -57 -40 -59 -40 -7 0 -137 -101 -205 -159 -114 -96 -245 -234 -345
-361 -19 -25 -42 -53 -51 -62 -8 -10 -15 -22 -15 -27 0 -5 -3 -11 -8 -13 -8
-3 -88 -124 -123 -185 -85 -149 -182 -362 -216 -477 -8 -28 -18 -58 -21 -66
-3 -8 -6 -18 -7 -22 -2 -5 -3 -9 -5 -10 -1 -2 -3 -10 -5 -18 -1 -8 -10 -42
-18 -75 -9 -33 -18 -71 -21 -85 -2 -14 -9 -47 -14 -75 -6 -27 -13 -75 -17
-105 -4 -30 -9 -68 -12 -85 -2 -16 -6 -122 -8 -235 -2 -185 6 -319 30 -459 4
-20 9 -49 12 -66 18 -110 101 -383 153 -500 56 -129 149 -307 163 -313 4 -2 7
-8 7 -14 0 -11 124 -199 155 -234 6 -6 23 -27 38 -47 96 -122 352 -377 378
-377 5 0 9 -3 9 -7 0 -5 23 -24 50 -43 27 -19 50 -38 50 -42 0 -5 5 -8 11 -8
6 0 28 -14 49 -30 21 -17 43 -30 49 -30 6 0 11 -4 11 -10 0 -5 4 -10 9 -10 6
0 29 -13 53 -29 106 -71 449 -228 541 -246 9 -2 21 -6 25 -9 5 -3 19 -7 33
-10 13 -3 66 -17 117 -30 99 -27 131 -33 202 -42 25 -3 51 -7 58 -10 77 -25
670 -24 712 1 3 2 28 6 55 9 28 4 70 12 95 17 25 6 56 13 70 15 58 11 244 69
350 109 124 48 308 140 435 218 40 25 231 161 247 176 9 9 38 34 64 56 90 75
230 221 317 331 107 134 96 119 134 179 18 28 36 55 41 60 4 6 19 30 32 55 14
25 27 47 30 50 3 3 21 37 40 75 19 39 38 73 43 76 5 3 8 9 7 13 0 3 9 28 21
54 11 26 22 52 23 57 1 6 9 26 18 45 14 33 61 169 63 180 0 3 3 10 6 15 5 8
32 115 55 220 35 155 49 305 49 520 0 211 -11 343 -40 475 -3 14 -10 45 -15
70 -17 85 -70 269 -97 340 -4 8 -7 17 -8 20 -1 3 -6 16 -13 30 -6 14 -19 45
-29 70 -71 176 -223 428 -363 603 -69 87 -230 252 -314 322 -26 22 -53 45 -59
50 -30 27 -146 113 -182 135 -22 13 -42 26 -45 30 -21 23 -373 210 -396 210
-3 0 -20 6 -37 14 -93 43 -368 123 -477 140 -19 3 -46 8 -60 11 -14 3 -45 8
-70 11 -25 3 -56 8 -70 10 -29 6 -456 15 -461 10z"/>
</g>
</svg>
